# xmcd
#
# Track frame offsets: 
#        150
#        13027
#        30470
#        48032
#        56735
#        67947
#        79852
#        90350
#        101670
#        112892
#        129707
#        145712
#        162292
#        175040
#        188115
#        203825
#        216207
#        227635
#        241135
#        252795
#
# Disc length: 3543 seconds
#
# Revision: 0
# Processed by: cddbd v1.5.2PL0 Copyright (c) Steve Scherf et al.
# Submitted via: ExactAudioCopyFreeDBPlugin 1.0
#
DISCID=fd0dd514
DTITLE=Dusty Springfield - Best Selection
DYEAR=1900
DGENRE=Pop
TTITLE0=YOU DON'T HAVE TO SAY YOU LOVE ME
TTITLE1=THE WINDMILLS OF YOUR MIND
TTITLE2=IF YOU GO AWAY
TTITLE3=SUNNY
TTITLE4=YOU DON'T OWN ME
TTITLE5=I ONLY WANT TO BE WITH YOU
TTITLE6=JUST A LITTLE LOVIN'
TTITLE7=A BRAND NEW ME
TTITLE8=SON OF A PREACHER MAN
TTITLE9=YESTERDAY WHEN I WAS YOUNG 
TTITLE10=THE LOOK OF LOVE
TTITLE11=THIS GIRL'S IN LOVE WITH YOU
TTITLE12=WILLIE and LAURA MAE JONES
TTITLE13=SOMEONE WHO CARES
TTITLE14=WHO GETS YOUR LOVE
TTITLE15=I JUST WANNA BE THERE
TTITLE16=IN THE LAND OF MAKE BELIEVE
TTITLE17=THAT OLD SWEET ROLL
TTITLE18=NOTHING IS FOREVER
TTITLE19=LEARN TO SAY GOODBYE
EXTD=
EXTT0=
EXTT1=
EXTT2=
EXTT3=
EXTT4=
EXTT5=
EXTT6=
EXTT7=
EXTT8=
EXTT9=
EXTT10=
EXTT11=
EXTT12=
EXTT13=
EXTT14=
EXTT15=
EXTT16=
EXTT17=
EXTT18=
EXTT19=
PLAYORDER=
